<?xml version="1.0" encoding="utf-8"?>
<!-- Generator: Adobe Illustrator 18.0.0, SVG Export Plug-In . SVG Version: 6.00 Build 0)  -->
<!DOCTYPE svg PUBLIC "-//W3C//DTD SVG 1.1//EN" "http://www.w3.org/Graphics/SVG/1.1/DTD/svg11.dtd">
<svg version="1.1" id="Layer_1" xmlns="http://www.w3.org/2000/svg" xmlns:xlink="http://www.w3.org/1999/xlink" x="0px" y="0px"
	 viewBox="0 0 841.9 1190.6" enable-background="new 0 0 841.9 1190.6" xml:space="preserve">
<g>
	<path fill-rule="evenodd" clip-rule="evenodd" fill="#F6921E" d="M58.1,175.1h725.7c31.6,0,57.3,25.6,57.3,57.3v725.7
		c0,31.6-25.6,57.3-57.3,57.3H58.1c-31.6,0-57.3-25.6-57.3-57.3V232.4C0.8,200.8,26.5,175.1,58.1,175.1z"/>
	<g id="lines__x3C_Group_x3E__2_">
		<path id="circle_2_" fill="#FFFFFF" d="M303.7,779.8c0,37-30,67-66.9,67s-66.9-29.9-66.9-67c0-37,30-66.9,66.9-66.9
			S303.7,742.9,303.7,779.8z"/>
		<g>
			<path fill="#FFFFFF" d="M169.9,611.1c62.7,0,121.6,24.5,166,69c44.4,44.6,68.8,104,68.8,167.1h96.7
				c0-183.5-148.7-332.8-331.4-332.8V611.1z"/>
		</g>
		<g>
			<path fill="#FFFFFF" d="M170.1,439.9c223.4,0,405.3,182.8,405.3,407.5H672c0-278-225.2-504.2-501.9-504.2V439.9z"/>
		</g>
	</g>
</g>
</svg>
