<?xml version="1.0" encoding="utf-8"?>
<!-- Generator: Adobe Illustrator 18.0.0, SVG Export Plug-In . SVG Version: 6.00 Build 0)  -->
<!DOCTYPE svg PUBLIC "-//W3C//DTD SVG 1.1//EN" "http://www.w3.org/Graphics/SVG/1.1/DTD/svg11.dtd">
<svg version="1.1" id="Layer_1" xmlns="http://www.w3.org/2000/svg" xmlns:xlink="http://www.w3.org/1999/xlink" x="0px" y="0px"
	 viewBox="0 0 841.9 1190.6" enable-background="new 0 0 841.9 1190.6" xml:space="preserve">
<g>
	<path fill-rule="evenodd" clip-rule="evenodd" fill="#B3B3B3" d="M58.8,176h724.3c31.6,0,57.2,25.6,57.2,57.2v724.3
		c0,31.6-25.6,57.2-57.2,57.2H58.8c-31.6,0-57.2-25.6-57.2-57.2V233.1C1.6,201.5,27.2,176,58.8,176z"/>
	<g>
		<path fill="#FFFFFF" d="M483.6,647.7l216.9-216.9v-10.2c0-19.2-15.7-34.9-34.9-34.9H176.3c-19.2,0-34.9,15.7-34.9,34.9v10.2
			l216.9,216.9H483.6z"/>
		<polygon fill="#FFFFFF" points="568,612.7 700.5,745.3 700.5,480.2 		"/>
		<polygon fill="#FFFFFF" points="141.4,745.3 273.9,612.7 141.4,480.2 		"/>
		<path fill="#FFFFFF" d="M543.2,637.4l-45.2,45.2H343.8l-45.2-45.2L147.5,788.6c6.2,9.6,16.6,16.4,28.8,16.4h489.2
			c12.3,0,22.6-6.8,28.8-16.4L543.2,637.4z"/>
	</g>
</g>
</svg>
