<?xml version="1.0" encoding="utf-8"?>
<!-- Generator: Adobe Illustrator 18.0.0, SVG Export Plug-In . SVG Version: 6.00 Build 0)  -->
<!DOCTYPE svg PUBLIC "-//W3C//DTD SVG 1.1//EN" "http://www.w3.org/Graphics/SVG/1.1/DTD/svg11.dtd">
<svg version="1.1" id="Layer_1" xmlns="http://www.w3.org/2000/svg" xmlns:xlink="http://www.w3.org/1999/xlink" x="0px" y="0px"
	 viewBox="1.6 299.1 592.2 592.3" enable-background="new 1.6 299.1 592.2 592.3" xml:space="preserve">
<g>
	<path fill="#00C300" d="M486.6,299.7l-377.1-0.6C50.3,299,2.1,347,2.1,406.3L1.6,783.4c-0.1,59.3,47.9,107.3,107.1,107.4l377.1,0.6
		c59.3,0.1,107.3-47.9,107.4-107.1l0.5-377.2C593.8,347.8,545.9,299.7,486.6,299.7z"/>
	<g>
		<g>
			<path fill="#FFFFFF" d="M513.3,569.2c0-96.4-96.7-174.9-215.6-174.9s-215.7,78.5-215.7,175c0,86.5,76.7,158.9,180.3,172.7
				c7,1.5,16.5,4.7,19,10.6c2.2,5.4,1.4,14,0.7,19.5c0,0-2.5,15.2-3,18.5c-0.9,5.4-4.3,21.3,18.7,11.6
				c23.1-9.7,124.2-73.1,169.4-125.2l0,0C498.4,642.7,513.3,607.9,513.3,569.2z M213.3,626.6h-42.8c-6.2,0-11.3-5.1-11.3-11.3v-85.6
				c0-6.2,5.1-11.3,11.3-11.3c6.2,0,11.3,5.1,11.3,11.3V604h31.5c6.2,0,11.3,5.1,11.3,11.3S219.5,626.6,213.3,626.6z M257.7,615.3
				c0,6.2-5.1,11.3-11.3,11.3s-11.3-5.1-11.3-11.3v-85.6c0-6.2,5.1-11.3,11.3-11.3s11.3,5.1,11.3,11.3V615.3z M360.7,615.3
				c0,4.9-3.1,9.2-7.7,10.7c-1.1,0.4-2.4,0.6-3.6,0.6c-3.5,0-6.9-1.7-9.1-4.5l-43.9-59.8v53c0,6.2-5.1,11.3-11.3,11.3
				c-6.2,0-11.3-5.1-11.3-11.3v-85.6c0-4.9,3.1-9.2,7.7-10.7c1.1-0.4,2.4-0.6,3.6-0.6c3.5,0,6.9,1.7,9.1,4.5l43.9,59.8v-53
				c0-6.2,5.1-11.3,11.3-11.3c6.2,0,11.3,5.1,11.3,11.3V615.3z M430.1,561.2c6.2,0,11.3,5.1,11.3,11.3s-5.1,11.3-11.3,11.3h-31.5
				V604h31.5c6.2,0,11.3,5.1,11.3,11.3s-5.1,11.3-11.3,11.3h-42.8c-6.2,0-11.3-5.1-11.3-11.3v-42.8l0,0l0,0v-42.8
				c0-6.2,5.1-11.3,11.3-11.3h42.8c6.2,0,11.3,5.1,11.3,11.3s-5.1,11.3-11.3,11.3h-31.5v20.2L430.1,561.2L430.1,561.2z"/>
		</g>
	</g>
</g>
</svg>
