<?xml version="1.0" encoding="utf-8"?>
<!-- Generator: Adobe Illustrator 18.0.0, SVG Export Plug-In . SVG Version: 6.00 Build 0)  -->
<!DOCTYPE svg PUBLIC "-//W3C//DTD SVG 1.1//EN" "http://www.w3.org/Graphics/SVG/1.1/DTD/svg11.dtd">
<svg version="1.1" id="Layer_1" xmlns="http://www.w3.org/2000/svg" xmlns:xlink="http://www.w3.org/1999/xlink" x="0px" y="0px"
	 viewBox="0 0 120 24" enable-background="new 0 0 120 24" xml:space="preserve">
<g>
	<polygon fill="#010101" points="41.7,17.5 41.7,20.3 30.3,20.3 30.3,17.5 34.4,17.5 34.4,6.5 30.3,6.5 30.3,3.7 41.7,3.7 41.7,6.5 
		37.6,6.5 37.6,17.5 	"/>
	<path fill="#010101" d="M22.3,3.7h-3.2l-2.2,13.1h-0.1L14.2,4.7c-0.2-0.8-0.4-1-1.2-1h-1.7c-0.8,0-1.1,0.2-1.2,1L7.4,16.8H7.4
		L5.1,3.7H1.7L5,19.5c0.1,0.7,0.4,0.9,1.2,0.9h2.2c0.7,0,1-0.2,1.2-0.9L12,8H12l2.5,11.4c0.1,0.7,0.4,0.9,1.2,0.9h2.2
		c0.8,0,1-0.2,1.2-0.9L22.3,3.7z M0,24L0,0l24,0v24H0z"/>
	<path fill="#010101" d="M63.6,16c0,1.8,0.1,3.1,0.3,4.2h3.3c-0.1-0.9-0.2-2.4-0.3-4.5c-0.1-2.4-0.8-2.8-2.6-3.2v-0.1
		c1.9-0.3,2.7-1.2,2.7-4.1c0-2.4-0.4-3.3-1.1-4c-0.5-0.5-1.4-0.7-2.6-0.7H53.3v16.5h3.4v-6.4h4.7c1,0,1.4,0.1,1.7,0.3
		C63.4,14.4,63.5,14.7,63.6,16 M56.7,11.1V6.5h5.4c0.8,0,1,0.1,1.1,0.2c0.2,0.2,0.5,0.6,0.5,2.1c0,1.5-0.2,1.9-0.5,2.1
		c-0.1,0.1-0.4,0.2-1.1,0.2H56.7z M48,24V0l24,0v24H48z"/>
	<path fill="#010101" d="M101.3,3.7v16.5h8.2c2.3,0,3.6-0.3,4.6-1.2c1.2-1,1.7-3,1.7-7.1c0-4.1-0.6-6-1.7-7c-1-0.9-2.3-1.2-4.6-1.2
		H101.3z M112.5,12c0,3.6-0.3,4.5-0.9,5c-0.5,0.4-1.1,0.5-2.3,0.5h-4.5V6.5h4.5c1.3,0,1.8,0.1,2.3,0.5C112.2,7.5,112.5,8.4,112.5,12
		 M96,24V0l24,0v24H96z"/>
	<polygon fill="#010101" points="76.4,6.5 76.4,3.7 90.5,3.7 90.5,9 87.5,9 87.5,6.5 81.8,6.5 81.8,10.4 86.4,10.4 86.4,13.1 
		81.8,13.1 81.8,17.5 87.7,17.5 87.7,14.6 90.7,14.6 90.7,20.3 76.4,20.3 76.4,17.5 78.7,17.5 78.7,6.5 	"/>
</g>
</svg>
