<svg xmlns="http://www.w3.org/2000/svg" viewBox="0 0 28 16" enable-background="new 0 0 28 16" widht="28" height="16"><path fill="#222222" d="M19.9 11.9c-2.3-.5-4.4-1-3.4-2.9 3.1-5.9.8-9-2.5-9-3.4 0-5.6 3.3-2.5 9 1.1 2-1.1 2.4-3.4 2.9-2.3.6-2.1 1.8-2.1 4h16c0-2.2.2-3.4-2.1-4z"/><path fill="#F5F5F5" d="M5.5 15.4c0-1.9 0-3.3 2.5-4l.2-.1h.2c-.1-.3-.1-.6.1-1 2.6-4.7.7-7.3-2-7.3-2.8 0-4.5 2.7-2 7.4.9 1.6-.9 2-2.8 2.4-1.9.3-1.7 1.3-1.7 3.1h5.5v-.5zM22.5 15.4c0-1.9 0-3.3-2.5-4l-.2-.1h-.2c.1-.3.1-.6-.1-1-2.5-4.7-.7-7.3 2-7.3 2.8 0 4.5 2.7 2 7.3-.9 1.6.9 2 2.8 2.4 1.9.5 1.7 1.5 1.7 3.3h-5.5v-.6z"/></svg>